<?xml version="1.0" encoding="utf-8"?>
<!-- Generator: Adobe Illustrator 16.0.0, SVG Export Plug-In . SVG Version: 6.00 Build 0)  -->
<!DOCTYPE svg PUBLIC "-//W3C//DTD SVG 1.1//EN" "http://www.w3.org/Graphics/SVG/1.1/DTD/svg11.dtd">
<svg version="1.1" id="Layer_1" xmlns="http://www.w3.org/2000/svg" xmlns:xlink="http://www.w3.org/1999/xlink" x="0px" y="0px"
	 width="512px" height="512px" viewBox="0 0 512 512" enable-background="new 0 0 512 512" xml:space="preserve">
<path d="M467.524,331.344c-9.417-1.521-15.36-10.396-18.788-17.973c0,0-2.799-5.232-7.334-13.811l47.18-176.082l-0.446,0.342
	c1.199-4.718,1.905-9.631,1.905-14.723c0-32.937-26.705-59.642-59.642-59.642c-32.941,0-59.643,26.706-59.643,59.642
	c0,32.472,25.963,58.831,58.261,59.569l-0.091,0.073c0.063-0.027,0.146-0.046,0.214-0.064c0.424,0.009,0.834,0.064,1.263,0.059
	c3.573,0,7.052-0.369,10.447-0.971c2.849,0.301,5.584,0.898,7.694,1.75c9.462,3.811,11.186,13.264,11.194,19.631l-25.799,96.265
	c-19.518-37.156-52.736-101.384-64.136-129.539c-26.861-66.329-52.527-119.302-102.27-103.65
	c-20.521,6.454-32.494,46.756-40.307,82.332l-6.13,22.886c-0.219-0.52-0.451-1.076-0.652-1.568
	c-26.861-66.329-52.527-119.302-102.269-103.65c-14.513,4.567-24.746,26.086-32.262,50.873L12.92,374.059l0.452-0.342
	c-1.201,4.717-1.908,9.631-1.908,14.723c0,32.936,26.701,59.641,59.638,59.641c32.945,0,59.646-26.705,59.646-59.641
	c0-32.473-25.963-58.832-58.261-59.574l0.091-0.068c-0.064,0.027-0.146,0.041-0.209,0.063c-0.429-0.008-0.839-0.063-1.267-0.063
	c-3.574,0-7.051,0.369-10.452,0.971c-2.844-0.301-5.579-0.895-7.694-1.746c-9.458-3.814-11.181-13.264-11.19-19.637l33.178-123.814
	c3.195-5.515,9.408-12.831,19.508-11.414c5.666,0.802,10.114,4.298,13.551,8.569l-0.128-0.46c0.501,0.953,0.958,1.901,1.377,2.831
	c0,0,62.409,116.673,78.936,157.495c26.86,66.332,52.527,119.301,102.269,103.648c25.657-8.072,37.964-69.068,45.467-107.561
	c0.583,1.367,1.125,2.676,1.622,3.912c26.86,66.332,52.527,119.301,102.27,103.648c31.91-10.041,43.169-101.967,50.225-130.609
	C490.041,314.631,483.346,333.879,467.524,331.344z M318.166,331.344c-9.417-1.521-15.36-10.396-18.788-17.973
	c0,0-44.951-84.045-68.653-134.43c3.369-2.808,7.749-4.763,13.373-3.97c5.671,0.807,10.114,4.298,13.556,8.574l-0.866-3.072
	c0.666,1.217,1.286,2.434,1.823,3.624c0,0,50.877,95.104,72.92,143.624C328.121,330.42,323.718,332.232,318.166,331.344z"/>
</svg>
